# xmcd
#
# Track frame offsets: 
#        150
#        12761
#        24273
#        38052
#        51394
#        64103
#        75397
#        84541
#        94108
#        106057
#        116209
#        129610
#        140324
#        151952
#        161137
#        175415
#        189253
#        201098
#        213962
#        225482
#
# Disc length: 3186 seconds
#
# Revision: 1
# Processed by: cddbd v1.5.2PL0 Copyright (c) Steve Scherf et al.
# Submitted via: ExactAudioCopyFreeDBPlugin 1.0
#
DISCID=fe0c7014
DTITLE=Professor Longhair, Junior Parker - ABC Of The Blues - Vol. 36 
DTITLE=LOnghair, Parker
DYEAR=2010
DGENRE=Blues
TTITLE0=Professor Longhair - Go To The Mardi Gras
TTITLE1=Professor Longhair - In The Night
TTITLE2=Professor Longhair - Hey Little Girl
TTITLE3=Professor Longhair - Walk Your Blues Away
TTITLE4=Professor Longhair - Willie Mae
TTITLE5=Professor Longhair - Professor Longhair Blues
TTITLE6=Professor Longhair - Misery
TTITLE7=Professor Longhair - Looka, No Hair
TTITLE8=Professor Longhair - Cuttin' Out
TTITLE9=Professor Longhair - Baby, Let Me Hold Your Hand
TTITLE10=Junior Parker - Feelin' Good
TTITLE11=Junior Parker - Mystery Train
TTITLE12=Junior Parker - Sittin' At The Bar
TTITLE13=Junior Parker - Sittin' At The Window
TTITLE14=Junior Parker - Sittin', Drinkin' And Thinkin'
TTITLE15=Junior Parker - Dirty Friend Blues
TTITLE16=Junior Parker - Backtracking
TTITLE17=Junior Parker - I Wanna Ramble
TTITLE18=Junior Parker - There Better Be No Feet
TTITLE19=Junior Parker - Fussin' And Fightin' Blues
EXTD=
EXTT0=
EXTT1=
EXTT2=
EXTT3=
EXTT4=
EXTT5=
EXTT6=
EXTT7=
EXTT8=
EXTT9=
EXTT10=
EXTT11=
EXTT12=
EXTT13=
EXTT14=
EXTT15=
EXTT16=
EXTT17=
EXTT18=
EXTT19=
PLAYORDER=
